 <svg version="1.0" xmlns="http://www.w3.org/2000/svg" width="700.000000pt" height="525.000000pt" viewBox="0 0 700.000000 525.000000" preserveAspectRatio="xMidYMid meet">
<metadata>
Created by potrace 1.12, written by Peter Selinger 2001-2015
</metadata>
<g transform="translate(0.000000,525.000000) scale(0.100000,-0.100000)" fill="#000000" stroke="none">
<path d="M6367 5043 c-24 -38 -76 -121 -117 -187 -40 -65 -83 -122 -94 -127
-12 -4 -127 -29 -256 -53 -204 -40 -390 -90 -1410 -380 -838 -239 -1617 -452
-2715 -742 -847 -224 -1542 -409 -1544 -411 -26 -20 179 32 1240 312 1769 468
1780 471 3038 829 972 277 1178 333 1375 371 127 24 242 46 256 47 l25 3 -4
-82 c-2 -56 1 -83 8 -83 7 0 11 28 11 79 0 44 4 82 9 85 4 3 104 -14 221 -37
l212 -42 44 48 c100 111 96 256 -9 361 -58 58 -104 76 -191 76 l-56 0 -43 -67z
m4 -60 c-22 -27 -50 -59 -62 -73 l-21 -25 14 25 c8 14 35 57 59 95 36 57 45
66 47 48 2 -15 -11 -39 -37 -70z m241 36 c47 -24 46 -33 -3 -19 -44 13 -101
13 -135 0 -38 -15 -67 -4 -54 20 5 10 20 21 32 23 40 9 120 -3 160 -24z m-154
-62 c25 -23 28 -63 8 -90 -13 -17 -244 -123 -251 -115 -2 2 37 56 87 121 99
126 105 130 156 84z m232 -16 c0 -13 -83 -87 -119 -105 -29 -15 -33 -15 -58 1
-16 9 -29 17 -30 18 -1 0 2 16 6 35 6 30 12 36 51 46 54 14 150 18 150 5z m0
-112 c-8 -27 -29 -60 -60 -93 -42 -44 -51 -49 -71 -40 l-23 10 23 20 c68 57
121 117 127 141 4 15 9 23 11 16 2 -6 -1 -31 -7 -54z m-168 -16 c22 -20 24
-85 3 -103 -11 -9 -45 -9 -160 1 -80 7 -143 15 -140 18 3 3 52 27 108 53 109
49 160 58 189 31z m56 -146 c7 -5 11 -12 8 -14 -5 -5 -179 27 -186 34 -10 10
165 -9 178 -20z"></path>
<path d="M6222 4618 c-21 -21 -14 -66 13 -84 23 -15 27 -15 50 0 17 11 25 26
25 44 0 35 -16 52 -50 52 -14 0 -31 -5 -38 -12z"></path>
<path d="M6034 4556 c-6 -15 22 -76 40 -88 6 -4 28 -8 49 -8 20 0 37 -2 37 -4
0 -2 -10 -30 -22 -61 l-22 -57 -49 5 c-41 5 -58 2 -106 -23 -66 -33 -84 -51
-75 -74 9 -23 30 -20 83 11 39 23 57 26 134 27 99 1 93 -3 127 80 l21 49 22
-22 c13 -11 28 -21 34 -21 20 0 73 51 73 71 0 23 -32 26 -50 4 -11 -13 -18
-10 -56 25 -41 37 -48 40 -103 40 -55 0 -61 2 -81 30 -23 32 -47 39 -56 16z"></path>
<path d="M5943 4391 c-72 -25 -93 -45 -73 -65 7 -7 31 1 78 23 59 29 75 32
113 26 51 -8 45 5 -11 28 -32 14 -40 13 -107 -12z"></path>
</g>
</svg>