<?xml version="1.0" standalone="no"?>
<!DOCTYPE svg PUBLIC "-//W3C//DTD SVG 20010904//EN"
 "http://www.w3.org/TR/2001/REC-SVG-20010904/DTD/svg10.dtd">
<svg version="1.0" xmlns="http://www.w3.org/2000/svg"
 width="256.000000pt" height="256.000000pt" viewBox="0 0 256.000000 256.000000"
 preserveAspectRatio="xMidYMid meet">
<metadata>
Created by potrace 1.15, written by Peter Selinger 2001-2017
</metadata>
<g transform="translate(0.000000,256.000000) scale(0.100000,-0.100000)"
fill="#000000" stroke="none">
<path d="M1745 2536 c-40 -11 -41 -13 -277 -436 -130 -234 -243 -435 -252
-447 -13 -18 -16 -57 -16 -242 l0 -221 30 0 30 0 0 195 c0 162 2 195 14 195 8
0 229 -32 491 -70 l477 -70 28 20 c52 37 137 140 169 204 64 131 83 300 47
436 -56 208 -229 382 -432 434 -73 19 -250 20 -309 2z m334 -161 c63 -15 197
-73 188 -81 -2 -3 -16 0 -30 5 -91 35 -277 30 -377 -9 -48 -19 -106 -15 -104
6 2 49 17 63 72 75 32 6 62 13 67 14 27 9 127 3 184 -10z m-258 -170 c69 -45
89 -141 47 -217 -22 -38 -39 -49 -283 -168 -143 -70 -262 -126 -263 -124 -5 4
338 494 366 523 19 19 29 22 60 16 20 -3 53 -17 73 -30z m559 -22 c0 -17 -89
-119 -144 -165 -61 -51 -170 -128 -181 -128 -3 0 -22 11 -43 24 -20 13 -52 27
-69 31 -30 6 -32 8 -21 28 6 12 14 46 17 77 l6 55 64 23 c89 31 235 60 309 61
34 1 62 -2 62 -6z m10 -238 c-20 -94 -75 -192 -157 -274 -71 -71 -74 -73 -110
-66 -21 4 -39 8 -41 9 -1 2 4 17 11 34 8 20 35 46 73 70 79 51 147 130 192
223 20 42 38 73 40 68 2 -5 -2 -33 -8 -64z m-420 -68 c50 -26 90 -90 90 -141
0 -35 -31 -109 -50 -121 -7 -4 -163 -2 -348 5 l-335 14 267 133 c180 89 278
133 300 133 18 0 52 -10 76 -23z"/>
<path d="M1373 1414 c-83 -41 -94 -158 -22 -219 43 -36 125 -36 168 0 122 103
-3 289 -146 219z"/>
<path d="M935 1245 c-33 -32 -32 -42 10 -126 54 -107 57 -109 174 -109 l100 0
-43 -127 -43 -128 -129 -5 -129 -5 -115 -69 c-63 -38 -125 -78 -137 -89 -29
-26 -31 -79 -3 -107 36 -36 75 -26 201 50 l116 70 176 -2 175 -3 31 29 c23 23
41 60 73 157 l42 128 48 -45 c67 -62 93 -61 180 14 72 62 90 93 76 132 -19 53
-73 55 -131 5 l-41 -35 -71 69 c-38 38 -80 74 -92 80 -13 7 -80 11 -167 11
l-146 0 -25 49 c-41 81 -86 101 -130 56z"/>
<path d="M735 849 c-82 -34 -158 -70 -167 -81 -10 -11 -18 -33 -18 -49 0 -29
30 -69 52 -69 6 0 71 35 142 78 l131 77 110 0 c86 0 110 3 110 14 0 15 -159
91 -190 90 -11 0 -87 -27 -170 -60z"/>
</g>
</svg>
