 <svg version="1.0" xmlns="http://www.w3.org/2000/svg" width="700.000000pt" height="700.000000pt" viewBox="0 0 700.000000 700.000000" preserveAspectRatio="xMidYMid meet">
<metadata>
Created by potrace 1.12, written by Peter Selinger 2001-2015
</metadata>
<g transform="translate(0.000000,700.000000) scale(0.100000,-0.100000)" fill="#000000" stroke="none">
<path d="M5827 6656 c-38 -12 -74 -29 -82 -37 -8 -8 -73 -202 -146 -431 l-132
-416 -451 -212 c-248 -117 -476 -227 -506 -245 -91 -53 -389 -227 -855 -497
-242 -140 -624 -362 -850 -493 -225 -131 -635 -368 -910 -528 -275 -159 -639
-371 -810 -470 -171 -99 -407 -236 -525 -305 -118 -68 -217 -126 -219 -128 -3
-3 0 -9 7 -16 8 -8 64 20 214 107 112 65 428 248 703 408 275 159 595 345 710
412 116 67 480 279 810 470 330 191 753 437 940 545 187 109 444 258 571 332
170 99 352 191 692 351 253 119 465 217 471 217 5 0 14 -21 19 -47 6 -27 21
-99 33 -160 19 -93 27 -113 41 -113 10 0 18 3 18 8 0 4 -14 78 -31 165 -18 86
-29 160 -26 163 3 3 198 17 432 30 268 14 432 28 441 35 32 26 89 127 111 196
89 283 -80 592 -368 668 -85 23 -221 19 -302 -9z m-52 -138 c6 -42 -5 -89 -28
-116 -6 -8 -37 -73 -69 -146 -32 -72 -58 -126 -58 -119 0 10 42 145 111 361
12 34 24 62 29 62 5 0 12 -19 15 -42z m421 28 c98 -26 95 -34 -12 -34 -112 -1
-199 -23 -274 -69 -31 -19 -55 -27 -78 -25 -32 3 -33 5 -26 35 9 43 8 42 51
62 93 45 239 58 339 31z m167 -133 c-25 -61 -83 -143 -153 -217 l-66 -68 -47
16 c-26 9 -58 16 -70 16 -21 0 -22 4 -22 74 0 71 1 74 30 91 122 71 252 123
317 124 l27 1 -16 -37z m-459 -52 c41 -23 67 -61 73 -107 10 -77 -7 -97 -233
-272 -114 -89 -210 -160 -212 -158 -3 4 194 468 224 528 21 40 86 44 148 9z
m514 -146 c-3 -79 -8 -101 -40 -167 -20 -41 -52 -93 -71 -115 -31 -34 -40 -39
-71 -35 -33 4 -35 6 -29 36 3 18 27 54 60 88 61 65 108 157 124 244 23 120 34
100 27 -51z m-309 -114 c63 -45 88 -129 57 -189 -19 -37 4 -31 -321 -82 -143
-22 -269 -42 -279 -45 -17 -3 -17 -2 -5 10 42 41 415 325 433 328 34 8 89 -3
115 -22z m201 -259 l25 -16 -40 -7 c-22 -4 -110 -10 -195 -13 -85 -4 -168 -9
-185 -12 -20 -4 -27 -3 -20 4 6 5 60 17 120 27 61 9 130 23 155 30 51 15 103
10 140 -13z"></path>
<path d="M5653 5610 c-69 -42 -63 -151 10 -186 75 -36 157 16 157 98 0 32 -7
47 -34 74 -40 40 -83 45 -133 14z"></path>
<path d="M5306 5394 c-9 -8 -16 -26 -16 -39 0 -28 96 -145 119 -145 9 0 50 6
91 14 41 8 76 13 79 11 2 -2 -2 -56 -9 -120 -10 -87 -17 -118 -29 -124 -9 -5
-52 -14 -96 -21 -44 -7 -91 -18 -105 -26 -39 -22 -198 -177 -204 -200 -8 -28
28 -74 58 -74 15 0 55 30 114 84 l91 84 123 22 c216 38 213 36 235 202 8 62
16 119 19 126 3 9 17 4 48 -17 43 -30 80 -38 101 -23 15 11 80 94 94 120 15
28 6 58 -20 73 -28 15 -52 4 -88 -41 l-31 -39 -77 50 c-42 27 -86 52 -97 54
-12 3 -75 -6 -141 -19 l-120 -24 -42 44 c-45 46 -71 54 -97 28z"></path>
<path d="M5196 5007 c-66 -45 -124 -89 -129 -98 -15 -24 0 -69 26 -78 19 -7
37 5 122 84 96 87 104 92 166 104 113 21 119 22 119 30 0 8 -143 41 -170 40
-8 0 -69 -37 -134 -82z"></path>
</g>
</svg>